# xmcd CD database file
#
# Track frame offsets:
#	150
#	12360
#	13302
#
# Disc length: 190 seconds
#
# Revision: 0
# Processed by: cddbd v1.5.2PL0 Copyright (c) Steve Scherf et al.
# Submitted via: CDex 1.72
#
DISCID=1c00bc03
DTITLE=River Road (USA-97-Someboyd Will-cty) - Somebody Will
DYEAR=1997
DGENRE=Country
TTITLE0=Someboyd Will
TTITLE1=Research Hook 1
TTITLE2=Research Hook 2
EXTD=YEAR: 1997
EXTT0=
EXTT1=
EXTT2=
PLAYORDER=
